PathFileType	4	(X/Y/Z)	Patient4_TMGait_0pt3_03_left_27.trc.trc
DataRate	CameraRate	NumFrames	NumMarkers	Units	OrigDataRate	OrigDataStartFrame	OrigNumFrames
53.435114503817	53.435114503817	4	33	mm	53.435114503817	53	       141
Frame#	Time	Sacral			L.Shoulder			Chest			R.Shoulder			Neck			R.ASIS			L.ASIS			R.Thigh.Superior			R.Thigh.Lateral			R.Thigh.Inferior			R.Patella			L.Thigh.Superior			L.Thigh.Lateral			L.Thigh.Inferior			L.Patella			L.Shank.Superior			L.Shank.Lateral			L.Shank.Inferior			R.Shank.Superior			R.Shank.Lateral			R.Shank.Inferior			R.Heel			R.Midfoot.Superior			R.Midfoot.Lateral			R.Toe			L.Heel			L.Midfoot.Lateral			L.Midfoot.Superior			L.Toe			L.Elbow			L.Wrist			R.Elbow			R.Wrist			
		X1	Y1	Z1	X2	Y2	Z2	X3	Y3	Z3	X4	Y4	Z4	X5	Y5	Z5	X6	Y6	Z6	X7	Y7	Z7	X8	Y8	Z8	X9	Y9	Z9	X10	Y10	Z10	X11	Y11	Z11	X12	Y12	Z12	X13	Y13	Z13	X14	Y14	Z14	X15	Y15	Z15	X16	Y16	Z16	X17	Y17	Z17	X18	Y18	Z18	X19	Y19	Z19	X20	Y20	Z20	X21	Y21	Z21	X22	Y22	Z22	X23	Y23	Z23	X24	Y24	Z24	X25	Y25	Z25	X26	Y26	Z26	X27	Y27	Z27	X28	Y28	Z28	X29	Y29	Z29	X30	Y30	Z30	X31	Y31	Z31	X32	Y32	Z32	X33	Y33	Z33	

53	48.513142857143	701.083180560637	1000.241105802917	452.529587874524	889.392292608184	1421.965278912022	260.663328387841	985.786060133222	1358.272950360182	426.904452851975	900.007750039689	1437.025880573056	596.841800553514	863.668700451361	1489.561091414118	415.449442621394	926.965735424229	937.354054979798	575.805435685827	923.326377956344	953.303002986973	302.675011046638	996.589058251380	752.235517890631	553.691793521958	940.025679414989	637.143274681428	627.285411682321	1026.927637755579	587.436702273249	551.260115682678	1032.202389318029	475.090788353843	577.784057724556	984.979293750895	751.562001429285	344.315409966762	913.282406945585	625.045001633266	285.955885794925	1000.187951033647	558.281429569594	358.095920457825	1004.869396734180	486.451359287298	369.436010089724	973.971484066989	411.414353674105	362.886108213948	883.433788802681	299.308656492420	306.692719651742	921.121176617513	189.036762445434	386.778437370002	950.350704819279	408.011568303444	587.073752361716	825.495636623514	379.667867713535	647.284117903098	804.642236308076	269.454926908298	602.976141716721	598.490778096168	220.142499766350	574.326502684590	763.218602819776	153.196992226980	623.354423915054	652.767520552079	161.969946423012	652.657015035494	820.259399175989	40.650598977195	657.149233851717	783.414684189641	37.747560582675	424.024296899536	861.554711914487	35.325112603288	346.933569614342	943.394909817944	95.520687483878	379.067612186399	1073.017017999918	45.398444480888	357.047548661065	932.771640549536	1076.076436148978	132.058126650538	1074.718033172558	857.000545651336	126.581923547517	912.424288203566	1083.720187586012	717.120263227064	1056.218535993542	868.359826843286	714.831176008483	
54	48.531857142857	700.039050907721	999.073707907954	449.419396491425	891.144206430303	1421.684586070187	260.190002311167	985.227563890593	1357.460278402771	427.519195926674	897.269083776997	1435.437016826901	596.734411172119	863.404902647752	1488.817646532714	415.144115115613	925.346100970194	937.090104836371	574.787207964827	923.644073700997	952.556223975976	301.197644715963	998.613216586351	754.824224671907	552.516610909365	944.778248702782	639.038239376059	626.796894273337	1032.965253086374	590.886822502260	551.222309711791	1040.523945148638	478.354344368512	578.251244355417	984.847696480579	750.537441232105	342.902279698767	913.124063437438	623.954385190996	284.810406839737	999.912640714064	557.202495332705	357.263413317580	1004.574513957359	485.181707643973	368.750560020830	972.638443962787	410.011273609466	362.449034338599	880.839233889357	298.838085881761	306.164963124001	916.901566292765	188.329645591145	386.587960692034	958.785157682551	410.323321395964	587.523850394099	833.428561408413	381.893074541954	647.044259867015	813.125770845143	271.402867371443	603.259024655143	607.138577480021	220.978433943852	573.428006515892	772.115966036486	155.590211729341	623.961582414080	661.329837073440	163.604335314532	652.473198580470	829.847631755376	42.492432585090	658.909034873043	777.781567945746	37.806145379319	423.933445262131	855.946127935323	35.326885586944	346.858621905264	937.864933812838	95.411122178086	379.042632026199	1067.450222329420	45.124462772924	357.007720292973	941.773023484541	1077.635807297997	129.984998507170	1093.933809633918	865.312222575368	124.653445208478	894.425079190114	1082.054053469341	716.628701090643	1017.390073194983	853.253708157391	717.860753052529	
55	48.550571428571	699.058045688400	998.115653847674	446.598163603504	892.957848092813	1421.498949023016	260.006141063708	984.728812654464	1356.763562755382	428.403468093847	894.595838730401	1434.063335873802	596.811914752975	863.214351344070	1488.200997506991	415.081656399749	923.788970933175	936.960273027737	574.038614940700	923.946140117704	951.927594217849	299.993250548437	1000.179907264816	757.286310340291	551.617637901857	948.701687283953	640.943025344987	626.543877399170	1037.970755150734	594.202395105467	551.384245796879	1047.785792521926	481.791082748747	578.813072159968	984.500009223985	749.510157379260	341.704971313378	912.612575547458	622.937738624182	283.838288989156	999.184335234510	556.122901148221	356.625060492399	1003.759213467501	483.963922495027	368.267031741478	970.887277701539	408.697596298048	362.148722755566	877.977419499328	298.387302440791	305.741713158533	912.525785844503	187.658009210623	386.438289481481	966.736200180409	412.501830351139	588.223382774054	841.483043361084	382.856881777143	647.531825506277	822.515081785694	271.990827787380	604.186113347411	617.115835370083	218.464657901198	574.053520937212	783.068246915183	156.398977261318	625.220594468962	672.137745235581	162.456999889181	653.468413221604	842.729954838596	43.862707991682	660.804227095755	772.135629217337	37.852049347767	423.848590288933	850.328768834115	35.324014799698	346.787005134026	932.310485683708	95.302133350644	379.026075161624	1061.868093643969	44.878097815653	356.974435287684	950.538181141245	1079.426636623988	128.313904394551	1112.595746417866	874.290882291530	123.231595916048	875.827193811099	1081.434151041208	716.053435771823	977.910995864468	841.810215910235	720.609732669648	
56	48.569285714286	698.149199699099	997.441739038355	444.050153926483	894.840223461753	1421.457433709499	260.103344134369	984.290816818356	1356.255549531745	429.555352117952	891.978966653038	1433.001243486388	597.055610380014	863.092449872890	1487.770495016504	415.239676883682	922.268382678654	937.001317479323	573.555437151518	924.271406216944	951.472565027532	299.100252050222	1001.258066933660	759.594971945215	551.011585660926	951.711267874214	642.825131065043	626.513226904369	1041.837979387251	597.301858866063	551.696656087376	1053.859436891186	485.349014737405	579.418759456665	983.923880518548	748.502568413867	340.775245840461	911.709851551405	622.039390251867	283.066462097968	997.920876557783	555.062122036226	356.217515728248	1002.312061449031	482.827475302206	368.024557067260	968.638582712982	407.512666074813	362.008413572488	874.812080568855	297.969250925759	305.429605087695	907.966084186934	187.034049034055	386.340121451633	974.125121740953	414.518502283290	589.141589289652	849.650578738422	382.512248870347	648.745746770711	832.880632453988	271.195086812788	605.770883963820	628.654650760370	212.592504974348	576.226256257792	796.199012648492	155.575048602900	627.173765068747	685.358254575875	158.526794550775	655.673909863327	858.956667100531	44.667302740096	662.889488291940	766.477147277797	37.883138222822	423.770539401300	844.702710450977	35.316230303213	346.720190104854	926.729516986433	95.194610825383	379.020980824681	1056.272158235381	44.660110735688	356.950110981731	959.093816289154	1081.487906566795	127.020867247215	1130.647468314342	883.925914305054	122.287207958477	856.738074746966	1081.992110362907	715.376850915684	938.408724027184	834.076732604757	722.962710379794	
